<svg width="88" height="48" viewBox="0 0 88 48" fill="none" xmlns="http://www.w3.org/2000/svg">
<g id="freepik--hammer-of-law--inject-35">
<path id="Vector" d="M30.3183 0.95874H83.2985C85.8569 0.95874 87.9889 3.06673 87.9889 5.59633V42.3809C87.9889 44.9105 85.8569 47.0186 83.2985 47.0186H30.3183C27.7599 47.0186 25.6279 44.9105 25.6279 42.3809V5.59633C25.6279 2.96133 27.7599 0.95874 30.3183 0.95874Z" fill="#353961"/>
<path id="Vector_2" fill-rule="evenodd" clip-rule="evenodd" d="M34.1557 17.7173C34.1557 17.7173 23.7089 33.1057 0.896484 25.9385C0.896484 25.9385 25.4145 42.5917 42.5771 24.0413L34.1557 17.7173Z" fill="#353961"/>
<path id="Vector_3" d="M83.7246 5.49095V42.2755C83.7246 42.4863 83.5114 42.6971 83.2982 42.6971H30.318C30.1048 42.6971 29.8916 42.4863 29.8916 42.2755V5.49095C29.8916 5.28015 30.1048 5.06934 30.318 5.06934H83.2982C83.618 5.17474 83.7246 5.28015 83.7246 5.49095Z" fill="white"/>
<path id="Vector_4" d="M39.4858 37.638C38.2066 37.3218 37.2472 36.3732 36.8208 35.1084V35.003L53.024 18.9822L55.689 21.6172L39.4858 37.638Z" fill="#353961"/>
<path id="Vector_5" opacity="0.5" d="M39.4858 37.638C38.2066 37.3218 37.2472 36.3732 36.8208 35.1084V35.003L53.024 18.9822L55.689 21.6172L39.4858 37.638Z" fill="black"/>
<path id="Vector_6" d="M54.1426 17.0248L50.9014 20.2295L54.2933 23.5833L57.5345 20.3786L54.1426 17.0248Z" fill="#353961"/>
<path id="Vector_7" opacity="0.7" d="M54.1426 17.0248L50.9014 20.2295L54.2933 23.5833L57.5345 20.3786L54.1426 17.0248Z" fill="black"/>
<path id="Vector_8" d="M54.6931 9.73876L49.3413 15.0303L59.5172 25.0916L64.8689 19.8001L54.6931 9.73876Z" fill="#353961"/>
<path id="Vector_9" opacity="0.3" d="M54.6931 9.73876L49.3413 15.0303L59.5172 25.0916L64.8689 19.8001L54.6931 9.73876Z" fill="black"/>
<path id="Vector_10" d="M54.6229 8.23124L56.2219 9.81224C56.6483 10.2338 56.6483 10.8662 56.2219 11.2878L51.105 16.3471C50.6786 16.7687 50.039 16.7687 49.6126 16.3471L48.0136 14.7661C47.5872 14.3445 47.5872 13.712 48.0136 13.2904L53.1304 8.23124C53.4502 7.80964 54.1965 7.80964 54.6229 8.23124Z" fill="#353961"/>
<path id="Vector_11" d="M64.8567 18.4551L66.4557 20.0361C66.8821 20.4577 66.8821 21.0901 66.4557 21.5117L61.3389 26.5709C60.9125 26.9925 60.2729 26.9925 59.8465 26.5709L58.2475 24.9899C57.8211 24.5683 57.8211 23.9359 58.2475 23.5143L63.3643 18.4551C63.7907 18.0335 64.4303 18.0335 64.8567 18.4551Z" fill="#353961"/>
<g id="Group" opacity="0.5">
<path id="Vector_12" d="M54.6229 8.23124L56.2219 9.81224C56.6483 10.2338 56.6483 10.8662 56.2219 11.2878L51.105 16.3471C50.6786 16.7687 50.039 16.7687 49.6126 16.3471L48.0136 14.7661C47.5872 14.3445 47.5872 13.712 48.0136 13.2904L53.1304 8.23124C53.4502 7.80964 54.1965 7.80964 54.6229 8.23124Z" fill="black"/>
<path id="Vector_13" d="M64.8562 18.4551L66.4552 20.0361C66.8816 20.4577 66.8816 21.0901 66.4552 21.5117L61.3384 26.5709C60.912 26.9925 60.2724 26.9925 59.846 26.5709L58.247 24.9899C57.8206 24.5683 57.8206 23.9359 58.247 23.5143L63.3638 18.4551C63.7902 18.0335 64.4298 18.0335 64.8562 18.4551Z" fill="black"/>
</g>
<path id="Vector_14" d="M57.501 29.8384H71.1458C71.892 29.8384 72.425 30.4708 72.425 31.1032V34.8976H56.1152V30.9978C56.2218 30.3654 56.8614 29.8384 57.501 29.8384Z" fill="#353961"/>
<path id="Vector_15" opacity="0.3" d="M57.501 29.8384H71.1458C71.892 29.8384 72.425 30.4708 72.425 31.1032V34.8976H56.1152V30.9978C56.2218 30.3654 56.8614 29.8384 57.501 29.8384Z" fill="black"/>
<path id="Vector_16" d="M72.8513 34.7922H55.9019C55.1557 34.7922 54.5161 35.4246 54.5161 36.1624C54.5161 36.9002 55.1557 37.5326 55.9019 37.5326H72.8513C73.5975 37.5326 74.2371 36.9002 74.2371 36.1624C74.2371 35.4246 73.5975 34.7922 72.8513 34.7922Z" fill="#353961"/>
<path id="Vector_17" opacity="0.5" d="M72.8513 34.7922H55.9019C55.1557 34.7922 54.5161 35.4246 54.5161 36.1624C54.5161 36.9002 55.1557 37.5326 55.9019 37.5326H72.8513C73.5975 37.5326 74.2371 36.9002 74.2371 36.1624C74.2371 35.4246 73.5975 34.7922 72.8513 34.7922Z" fill="black"/>
</g>
</svg>
