<?xml version="1.0" standalone="no"?>
<!DOCTYPE svg PUBLIC "-//W3C//DTD SVG 20010904//EN"
 "http://www.w3.org/TR/2001/REC-SVG-20010904/DTD/svg10.dtd">
<svg version="1.0" xmlns="http://www.w3.org/2000/svg"
 width="1278.000000pt" height="851.000000pt" viewBox="0 0 1278.000000 851.000000"
 preserveAspectRatio="xMidYMid meet">
<metadata>
Created by potrace 1.16, written by Peter Selinger 2001-2019
</metadata>
<g transform="translate(0.000000,851.000000) scale(0.100000,-0.100000)"
fill="#353961" stroke="none">
<path d="M524 8430 c-181 -47 -332 -171 -419 -342 -71 -141 -66 80 -63 -2863
l3 -2650 26 -67 c96 -246 295 -401 552 -428 57 -6 1224 -10 3058 -10 l2965 0
58 -90 c414 -644 1184 -1132 2169 -1375 184 -45 417 -88 537 -99 77 -7 86 -13
-155 94 -617 272 -1115 674 -1438 1161 -41 63 -98 157 -126 210 l-51 96 242 6
c271 6 315 13 438 74 106 53 231 179 283 284 72 146 67 -68 67 2835 0 2576 0
2622 -20 2698 -58 229 -237 408 -466 466 -76 20 -127 20 -3833 19 -3637 0
-3758 -1 -3827 -19z m7613 -449 c24 -14 55 -42 70 -64 l28 -40 3 -2591 c2
-1845 0 -2602 -8 -2629 -14 -49 -65 -106 -115 -128 -38 -18 -183 -19 -3750
-19 -3590 0 -3711 1 -3750 19 -49 23 -89 64 -109 113 -14 33 -16 308 -16 2618
0 2307 2 2585 15 2618 27 63 78 105 150 123 17 4 1697 6 3735 6 l3705 -2 42
-24z"/>
<path d="M4261 7579 c-81 -32 -133 -109 -134 -197 0 -36 6 -70 17 -91 l18 -34
-30 -24 c-17 -13 -33 -36 -37 -53 -10 -45 26 -99 68 -100 15 0 17 -12 17 -103
l0 -103 -36 -35 c-20 -18 -46 -49 -58 -67 -17 -27 -36 -38 -108 -62 -114 -39
-198 -82 -336 -173 -247 -165 -468 -198 -722 -109 -99 35 -110 42 -110 74 0
72 -58 128 -132 128 -43 0 -55 -5 -83 -33 -44 -44 -53 -93 -29 -143 28 -57 62
-76 127 -75 31 0 59 -4 62 -9 3 -5 -127 -258 -289 -562 -285 -535 -296 -553
-325 -556 -30 -3 -31 -4 -31 -58 l0 -54 705 0 705 0 0 54 c0 54 -1 55 -31 58
-29 3 -39 19 -260 433 -126 237 -252 471 -279 521 l-48 91 50 -19 c28 -10 99
-31 157 -45 88 -21 120 -24 191 -19 160 11 226 34 470 163 63 34 157 78 209
98 l94 37 26 -33 c14 -18 38 -44 53 -58 l28 -24 0 -1279 0 -1278 165 0 165 0
0 1288 c0 1283 0 1289 20 1307 12 10 30 33 41 51 l20 33 52 -18 c79 -28 209
-88 347 -163 215 -115 399 -151 571 -110 48 12 119 32 158 46 39 14 71 22 71
20 0 -3 -125 -239 -277 -525 l-277 -519 -34 0 -33 0 3 -52 3 -53 708 -3 707
-2 0 54 c0 54 0 55 -32 58 -31 3 -37 13 -329 558 -163 305 -294 559 -292 563
3 5 21 8 42 7 79 -4 93 0 127 34 30 30 34 40 34 88 0 85 -45 128 -133 128 -70
0 -127 -60 -127 -134 0 -21 -10 -28 -77 -54 -272 -105 -500 -76 -769 98 -114
74 -251 141 -360 177 -68 22 -85 32 -94 54 -6 15 -25 39 -41 55 -29 27 -29 29
-29 141 0 72 4 113 10 113 24 0 60 50 60 82 0 38 -24 78 -46 78 -18 0 -18 -1
6 51 48 106 4 225 -102 280 -40 21 -135 25 -177 8z m-1471 -1799 l0 -530 -281
0 c-167 0 -279 4 -277 9 5 15 553 1050 556 1051 1 0 2 -238 2 -530z m610 -526
c0 -2 -126 -4 -280 -4 l-280 0 0 533 0 532 280 -529 c154 -291 280 -531 280
-532z m2460 526 l0 -530 -280 0 c-154 0 -280 3 -280 6 0 8 553 1054 557 1054
2 0 3 -238 3 -530z m317 25 c143 -269 268 -505 277 -522 l17 -33 -281 0 -280
0 0 527 c0 289 2 524 4 522 2 -2 121 -224 263 -494z"/>
<path d="M2200 5117 c0 -18 63 -122 106 -174 134 -163 383 -256 600 -223 153
23 283 89 390 197 52 54 134 176 134 201 0 9 -146 12 -615 12 -500 0 -615 -2
-615 -13z"/>
<path d="M5297 5058 c53 -102 163 -211 268 -265 111 -57 188 -76 315 -76 125
-1 198 17 314 75 100 50 225 171 274 264 18 34 32 65 32 68 0 3 -279 6 -621 6
l-620 0 38 -72z"/>
<path d="M3493 3814 c-53 -26 -58 -55 -55 -281 l4 -203 -302 0 c-323 0 -331
-1 -388 -54 -54 -48 -71 -140 -39 -203 23 -43 80 -90 126 -103 27 -7 503 -9
1523 -8 1654 3 1510 -3 1576 72 74 85 44 224 -60 275 -42 20 -59 21 -336 21
l-292 0 0 204 c0 113 -4 216 -10 230 -5 14 -24 35 -42 46 -32 19 -51 20 -853
20 -722 0 -824 -2 -852 -16z"/>
</g>
</svg>
