<svg width="80" height="74" viewBox="0 0 80 74" fill="none" xmlns="http://www.w3.org/2000/svg">
<g id="freepik--Paper--inject-35">
<path id="Vector" d="M12.0138 0.615479H73.7351C76.7199 0.615479 79.1718 3.03968 79.1718 5.99088V48.7833C79.1718 51.7345 76.7199 54.1587 73.7351 54.1587H12.0138C9.02895 54.1587 6.57715 51.7345 6.57715 48.7833V5.99088C6.57715 3.03968 9.02895 0.615479 12.0138 0.615479Z" fill="#353961"/>
<path id="Vector_2" fill-rule="evenodd" clip-rule="evenodd" d="M21.0746 46.3591C21.0746 46.3591 22.7802 64.8041 0.607422 73.4469C0.607422 73.4469 30.2422 71.0227 31.628 45.9375L21.0746 46.3591Z" fill="#353961"/>
<path id="Vector_3" d="M76.3996 5.04192V48.5091C76.3996 49.5221 75.5618 50.2588 74.631 50.2588H12.0763C11.0523 50.2588 10.3076 49.43 10.3076 48.5091V5.13401C10.3076 4.121 11.1454 3.89817 12.0763 3.89817H74.631C75.5618 3.80608 76.3996 4.12101 76.3996 5.04192Z" fill="white"/>
<path id="Vector_4" d="M55.2933 9.46899C56.7857 9.46899 57.9583 10.6284 57.9583 12.104V13.3688H50.7095L55.2933 9.46899Z" fill="#353961"/>
<path id="Vector_5" d="M55.2933 9.46899C56.7857 9.46899 57.9583 10.6284 57.9583 12.104V13.3688H50.7095L55.2933 9.46899Z" fill="#171723"/>
<path id="Vector_6" d="M56.3591 44.251C61.5825 34.0272 51.1356 18.8496 55.1864 9.46899H32.9071C30.7751 9.46899 29.0694 11.05 28.8562 13.158C28.0034 22.7494 35.8918 35.9244 30.5618 44.8834H55.1864C55.7194 44.8834 56.1459 44.6726 56.3591 44.251Z" fill="#353961"/>
<path id="Vector_7" d="M56.3591 44.251C61.5825 34.0272 51.1356 18.8496 55.1864 9.46899H32.9071C30.7751 9.46899 29.0694 11.05 28.8562 13.158C28.0034 22.7494 35.8918 35.9244 30.5618 44.8834H55.1864C55.7194 44.8834 56.1459 44.6726 56.3591 44.251Z" fill="#313151"/>
<path id="Vector_8" d="M30.6685 44.8834C29.3893 44.8834 28.3232 43.8294 28.3232 42.5646V41.7214H53.0545V42.5646C53.0545 43.8294 54.1204 44.8834 55.3996 44.8834H30.6685Z" fill="#353961"/>
<g id="XMLID_00000168808828316819771210000005179447955641498276_">
<g id="Group">
<path id="Vector_9" d="M55.2932 44.8834H30.562C29.2828 44.8834 28.2168 43.8294 28.2168 42.5646V41.7214H52.948V42.5646C53.0546 43.8294 54.014 44.8834 55.2932 44.8834Z" fill="#171723"/>
</g>
</g>
<path id="Vector_10" opacity="0.3" d="M49.8564 14.3174H32.374V15.793H49.8564V14.3174Z" fill="black"/>
<path id="Vector_11" opacity="0.3" d="M50.7094 19.4822H33.2271V20.9578H50.7094V19.4822Z" fill="black"/>
<path id="Vector_12" opacity="0.3" d="M51.6689 23.2764H34.1865V24.752H51.6689V23.2764Z" fill="black"/>
<path id="Vector_13" opacity="0.3" d="M52.5215 27.1763H35.0391V28.6519H52.5215V27.1763Z" fill="black"/>
<path id="Vector_14" opacity="0.3" d="M50.603 38.6648C52.0748 38.6648 53.268 37.485 53.268 36.0298C53.268 34.5745 52.0748 33.3948 50.603 33.3948C49.1311 33.3948 47.938 34.5745 47.938 36.0298C47.938 37.485 49.1311 38.6648 50.603 38.6648Z" fill="black"/>
</g>
</svg>
